<?xml version="1.0" encoding="UTF-8" standalone="no"?>
<!-- Generator: Adobe Illustrator 19.2.0, SVG Export Plug-In . SVG Version: 6.00 Build 0)  -->

<svg
   xmlns:dc="http://purl.org/dc/elements/1.1/"
   xmlns:cc="http://creativecommons.org/ns#"
   xmlns:rdf="http://www.w3.org/1999/02/22-rdf-syntax-ns#"
   xmlns:svg="http://www.w3.org/2000/svg"
   xmlns="http://www.w3.org/2000/svg"
   xmlns:sodipodi="http://sodipodi.sourceforge.net/DTD/sodipodi-0.dtd"
   xmlns:inkscape="http://www.inkscape.org/namespaces/inkscape"
   version="1.1"
   id="Layer_1"
   x="0px"
   y="0px"
   width="130px"
   height="130px"
   viewBox="0 0 24 24"
   style="enable-background:new 0 0 24 24;"
   xml:space="preserve"
   inkscape:version="0.91 r13725"
   sodipodi:docname="loading.svg"><metadata
   id="metadata3358"><rdf:RDF><cc:Work
       rdf:about=""><dc:format>image/svg+xml</dc:format><dc:type
         rdf:resource="http://purl.org/dc/dcmitype/StillImage" /></cc:Work></rdf:RDF></metadata><defs
   id="defs3356" /><sodipodi:namedview
   pagecolor="#ffffff"
   bordercolor="#666666"
   borderopacity="1"
   objecttolerance="10"
   gridtolerance="10"
   guidetolerance="10"
   inkscape:pageopacity="0"
   inkscape:pageshadow="2"
   inkscape:window-width="1920"
   inkscape:window-height="1017"
   id="namedview3354"
   showgrid="false"
   inkscape:zoom="5.1346831"
   inkscape:cx="105.4281"
   inkscape:cy="72.491294"
   inkscape:window-x="-8"
   inkscape:window-y="-8"
   inkscape:window-maximized="1"
   inkscape:current-layer="Layer_1" />
<style
   type="text/css"
   id="style3350">
	.st0{fill:#E8E8E8;}
</style>
<path
   class="st0"
   d="M11,0l5.2,4L11,8V5.1C7.6,5.6,5,8.5,5,12c0,2.2,1.1,4.2,2.7,5.5l-1.6,1.2C4.2,17.1,3,14.7,3,12  c0-4.6,3.5-8.5,8-8.9V0z M13,16l-5.2,4l5.2,4v-3.1c4.5-0.5,8-4.3,8-8.9c0-2.7-1.2-5.1-3.1-6.8l-1.6,1.2C17.9,7.8,19,9.8,19,12  c0,3.5-2.6,6.4-6,6.9C13,18.9,13,16,13,16z"
   id="path3352" />
<path
   style="fill:#4d4d4d"
   d="M 30.7114,99.122607 C 22.822832,91.450454 18.194617,82.174067 16.595473,70.829879 c -0.308981,-2.191884 -0.314154,-9.163586 -0.0085,-11.490485 1.181938,-8.998686 4.302995,-16.718993 9.627188,-23.813996 2.150924,-2.866315 6.304105,-7.066541 9.069268,-9.171999 6.656669,-5.068543 14.338278,-8.254404 22.503423,-9.333042 l 1.776713,-0.234709 0.09738,-8.325244 0.09738,-8.32524389 13.92491,10.71175189 c 7.658701,5.891463 13.92491,10.755479 13.92491,10.808925 0,0.05345 -6.266209,4.919916 -13.92491,10.814378 l -13.92491,10.717202 -0.0509,-7.798409 -0.0509,-7.798409 -0.825492,0.124572 c -1.607526,0.24259 -5.136013,1.205074 -7.057621,1.925147 -12.332214,4.621177 -21.235871,15.026114 -23.970822,28.012633 -0.684178,3.24872 -0.865003,8.917388 -0.389268,12.203158 1.290939,8.916163 5.442214,16.705415 12.380988,23.231087 1.038865,0.977015 1.742579,1.779911 1.640729,1.871972 -0.468006,0.423021 -8.109498,6.086542 -8.322576,6.168312 -0.133939,0.0514 -1.214403,-0.8508 -2.401031,-2.004873 z"
   id="path3377"
   inkscape:connector-curvature="0"
   transform="scale(0.18461538,0.18461538)" /><path
   style="fill:#4d4d4d"
   d="m 56.293556,119.11426 c -7.689798,-5.91748 -13.912188,-10.82693 -13.827533,-10.9099 0.08466,-0.083 6.376309,-4.93892 13.981452,-10.791016 l 13.827533,-10.640179 0.0509,7.80343 c 0.03945,6.048555 0.105148,7.803035 0.292131,7.801665 0.616938,-0.005 4.73744,-1.04343 6.60412,-1.66512 2.538045,-0.845282 6.502349,-2.79176 8.728153,-4.285531 C 95.455404,90.048596 101.42194,80.2466 102.71556,68.885157 102.9991,66.39492 102.85135,61.260823 102.4307,58.986683 100.85342,50.4595 96.467211,42.434854 89.990449,36.22701 l -1.661035,-1.592069 4.105725,-3.082027 c 2.25815,-1.695115 4.216358,-3.149452 4.351574,-3.23186 0.325231,-0.198213 3.745887,3.222743 5.907667,5.908189 4.23017,5.25488 7.46292,11.415964 9.17041,17.477275 4.00271,14.208982 1.38258,29.398133 -7.11755,41.261162 -7.659484,10.68979 -18.689454,17.57739 -31.745676,19.8234 l -2.531802,0.43554 -0.09738,8.32335 -0.09738,8.32335 -13.981452,-10.75906 z"
   id="path3379"
   inkscape:connector-curvature="0"
   transform="scale(0.18461538,0.18461538)" /></svg>